<svg xmlns="http://www.w3.org/2000/svg" viewBox="0 0 369.8 369.8">
  <path stroke="none" fill="#dd1219" d="M300.1 1.2c-31.9 4.6-75.8 25-107.6 49.8-8.8 7-7.5 6.8-15.4.7a322.3 322.3 0 0 0-53-32.5c-97-46-144.4-3.7-115.9 103.6 22.4 84.1 88.3 201.8 129.3 231a78.8 78.8 0 0 0 93.3 1.4c31.5-22.5 91.1-124 119.7-204C388.2 46 369.7-9 300.1 1.2M325.7 39c28.6 14.7-28.7 171.8-95.5 262-32 43-57.8 43-92 0-62.4-77.8-119.5-233.4-95-258.2 12-12.2 54.4 1 100.8 31.6 13 8.6 13.5 9.2 9.6 12.8-27.2 25.7-38.8 74.5-24.7 104.1 21 44.1 88.1 44 110-.4 15-30.4 7.5-67-20.2-99.7l-5.6-6.7c-1-1.4 3.3-4.9 19.5-15.6 22.3-14.8 51.7-27.4 70.2-30 3.3-.6 6.8-1 8-1.4a40 40 0 0 1 15 1.6m-137.6 74c29 31.5 26 74-5.3 74-30 0-30.8-43.6-1.3-74.9 3-3.2 2.8-3.2 6.6 1"/>
</svg>