<?xml version="1.0" encoding="UTF-8" standalone="no"?>
<svg
   viewBox="0 0 1655.6488 369.82935"
   version="1.1"
   id="svg941"
   sodipodi:docname="logo.svg"
   width="1655.6488"
   height="369.82935"
   inkscape:version="1.1.1 (3bf5ae0d25, 2021-09-20)"
   xmlns:inkscape="http://www.inkscape.org/namespaces/inkscape"
   xmlns:sodipodi="http://sodipodi.sourceforge.net/DTD/sodipodi-0.dtd"
   xmlns="http://www.w3.org/2000/svg"
   xmlns:svg="http://www.w3.org/2000/svg">
  <defs
     id="defs945" />
  <sodipodi:namedview
     id="namedview943"
     pagecolor="#505050"
     bordercolor="#eeeeee"
     borderopacity="1"
     inkscape:pageshadow="0"
     inkscape:pageopacity="0"
     inkscape:pagecheckerboard="0"
     showgrid="false"
     showguides="true"
     inkscape:guide-bbox="true"
     fit-margin-top="0"
     fit-margin-left="0"
     fit-margin-right="0"
     fit-margin-bottom="0"
     inkscape:zoom="0.89757412"
     inkscape:cx="674.03904"
     inkscape:cy="147.62012"
     inkscape:window-width="5120"
     inkscape:window-height="1351"
     inkscape:window-x="-9"
     inkscape:window-y="-9"
     inkscape:window-maximized="1"
     inkscape:current-layer="svg941">
    <sodipodi:guide
       position="413.95978,461.56076"
       orientation="1,0"
       id="guide39975" />
    <sodipodi:guide
       position="1655.0829,185.26045"
       orientation="1,0"
       id="guide39977" />
  </sodipodi:namedview>
  <path
     fill="#dd1219"
     fill-rule="evenodd"
     d="m 300.10933,1.2259516 c -31.9,4.6 -75.8,25.0000004 -107.6,49.8000004 -8.8,6.9 -7.5,6.8 -15.4,0.7 a 322.3,322.3 0 0 0 -53,-32.5 c -97.000003,-46.1 -144.400003,-3.7 -115.9000033,103.599998 22.4000003,84.1 88.3000003,201.8 129.3000033,231 a 78.8,78.8 0 0 0 93.3,1.4 c 31.5,-22.5 91.1,-124 119.7,-204 37.7,-105.299998 19.2,-160.2999984 -50.4,-149.9999984 m 25.6,37.8000004 c 28.6,14.7 -28.7,171.799998 -95.5,261.899998 -32,43 -57.8,43 -92.1,0 -62.300003,-77.7 -119.400003,-233.299998 -94.900003,-258.099998 12,-12.2 54.4,1 100.800003,31.6 13,8.6 13.5,9.2 9.6,12.8 -27.2,25.699998 -38.8,74.499998 -24.7,104.099998 20.9,44.1 88.1,43.9 109.9,-0.4 15,-30.4 7.6,-67 -20.1,-99.699998 l -5.6,-6.7 c -1,-1.4 3.3,-4.9 19.5,-15.6 22.3,-14.8 51.7,-27.4 70.2,-30.1 3.3,-0.5 6.8,-1 7.9,-1.3 a 40,40 0 0 1 15,1.6 m -137.5,73.999998 c 29,31.5 26,73.9 -5.3,73.9 -30,0 -30.8,-43.5 -1.3,-74.8 3,-3.2 2.8,-3.2 6.6,0.9"
     id="path939" />
  <g
     aria-label="VOICERARY"
     id="text1774"
     style="font-size:192.603px;line-height:1.25;font-family:Calibri;-inkscape-font-specification:Calibri;letter-spacing:27.55px;word-spacing:0px;fill:#dd1219;stroke-width:3.00943">
    <path
       d="M 536.84235,93.829768 488.40946,228.68948 H 463.39364 L 415.80716,93.829768 h 24.45155 l 33.29173,102.320342 q 1.59876,4.89031 2.44516,11.37938 h 0.37618 q 0.65831,-5.36054 2.72728,-11.56747 L 513.14315,93.829768 Z"
       style="font-weight:600;font-family:'Segoe UI';-inkscape-font-specification:'Segoe UI Semi-Bold'"
       id="path914" />
    <path
       d="m 637.08869,230.94655 q -29.15378,0 -46.74008,-18.90293 -17.49227,-18.90293 -17.49227,-49.18524 0,-32.53937 17.86844,-51.91253 17.86844,-19.373148 48.52693,-19.373148 28.40142,0 45.70559,18.808888 17.39822,18.80888 17.39822,49.18524 0,33.00959 -17.77439,52.19466 -17.7744,19.18506 -47.49244,19.18506 z m 1.03449,-119.71856 q -18.52676,0 -30.18827,13.82453 -11.56746,13.82453 -11.56746,36.39519 0,22.47662 11.28533,36.20711 11.28533,13.73049 29.52995,13.73049 19.37316,0 30.56444,-13.07218 11.19129,-13.07217 11.19129,-36.58328 0,-24.16942 -10.90915,-37.33564 -10.81511,-13.16622 -29.90613,-13.16622 z"
       style="font-weight:600;font-family:'Segoe UI';-inkscape-font-specification:'Segoe UI Semi-Bold'"
       id="path916" />
    <path
       d="M 777.58605,228.68948 H 754.54517 V 93.829768 h 23.04088 z"
       style="font-weight:600;font-family:'Segoe UI';-inkscape-font-specification:'Segoe UI Semi-Bold'"
       id="path918" />
    <path
       d="m 932.37816,223.04682 q -15.2352,7.89973 -37.8999,7.89973 -29.34187,0 -47.02222,-18.52675 -17.68035,-18.52676 -17.68035,-48.62097 0,-32.35129 19.84337,-52.28871 19.93742,-19.937418 50.31377,-19.937418 19.56125,0 32.44533,5.548621 v 22.194487 q -13.63644,-8.08782 -30.09422,-8.08782 -21.91235,0 -35.54879,14.01262 -13.5424,14.01262 -13.5424,37.42968 0,22.28853 12.696,35.5488 12.696,13.16622 33.38577,13.16622 19.09102,0 33.10364,-9.02827 z"
       style="font-weight:600;font-family:'Segoe UI';-inkscape-font-specification:'Segoe UI Semi-Bold'"
       id="path920" />
    <path
       d="M 1061.214,228.68948 H 985.50823 V 93.829768 h 72.69637 v 18.996972 h -50.3138 v 38.18204 h 46.3639 v 18.90293 h -46.3639 v 39.87484 h 53.3232 z"
       style="font-weight:600;font-family:'Segoe UI';-inkscape-font-specification:'Segoe UI Semi-Bold'"
       id="path922" />
    <path
       d="m 1216.9466,228.68948 h -26.1444 l -21.5361,-36.11306 q -2.9154,-4.98435 -5.7368,-8.464 -2.7272,-3.57369 -5.6426,-5.83075 -2.8214,-2.25707 -6.207,-3.29156 -3.3856,-1.03449 -7.6176,-1.03449 h -9.0282 v 54.73386 h -22.2885 V 93.829768 h 44.3889 q 9.4985,0 17.4923,2.257066 7.9938,2.257067 13.9186,6.865246 5.9248,4.51413 9.2163,11.37937 3.3856,6.7712 3.3856,15.89351 0,7.14738 -2.163,13.16622 -2.069,5.9248 -6.0188,10.62702 -3.8559,4.60818 -9.4045,7.89974 -5.4546,3.29155 -12.3198,5.0784 v 0.37617 q 3.6677,2.06898 6.395,4.60818 2.7273,2.44516 5.1725,5.0784 2.4451,2.63324 4.7962,6.01884 2.4452,3.29156 5.3606,7.71165 z m -81.9127,-116.70914 v 43.82471 h 18.6208 q 5.1724,0 9.4985,-1.59876 4.4201,-1.59875 7.6176,-4.60817 3.1975,-3.00943 4.9843,-7.33547 1.7869,-4.32604 1.7869,-9.68658 0,-9.68657 -6.1129,-15.14115 -6.1129,-5.45458 -17.5863,-5.45458 z"
       style="font-weight:600;font-family:'Segoe UI';-inkscape-font-specification:'Segoe UI Semi-Bold'"
       id="path924" />
    <path
       d="m 1370.9864,228.68948 h -24.5456 l -12.1318,-34.32621 h -53.041 l -11.6615,34.32621 h -24.4516 l 50.5019,-134.859712 h 25.2039 z m -42.6022,-52.57083 -18.7148,-53.79342 q -0.8464,-2.63324 -1.7869,-8.464 h -0.3761 q -0.8464,5.36053 -1.8809,8.464 l -18.5268,53.79342 z"
       style="font-weight:600;font-family:'Segoe UI';-inkscape-font-specification:'Segoe UI Semi-Bold'"
       id="path926" />
    <path
       d="M 1521.2643,228.68948 H 1495.12 l -21.5362,-36.11306 q -2.9154,-4.98435 -5.7367,-8.464 -2.7273,-3.57369 -5.6427,-5.83075 -2.8213,-2.25707 -6.2069,-3.29156 -3.3856,-1.03449 -7.6176,-1.03449 h -9.0283 v 54.73386 h -22.2885 V 93.829768 h 44.389 q 9.4985,0 17.4922,2.257066 7.9938,2.257067 13.9186,6.865246 5.9248,4.51413 9.2164,11.37937 3.3856,6.7712 3.3856,15.89351 0,7.14738 -2.1631,13.16622 -2.0689,5.9248 -6.0188,10.62702 -3.8558,4.60818 -9.4044,7.89974 -5.4546,3.29155 -12.3199,5.0784 v 0.37617 q 3.6678,2.06898 6.3951,4.60818 2.7272,2.44516 5.1724,5.0784 2.4452,2.63324 4.7963,6.01884 2.4451,3.29156 5.3605,7.71165 z m -81.9127,-116.70914 v 43.82471 h 18.6208 q 5.1725,0 9.4985,-1.59876 4.4201,-1.59875 7.6176,-4.60817 3.1975,-3.00943 4.9844,-7.33547 1.7868,-4.32604 1.7868,-9.68658 0,-9.68657 -6.1129,-15.14115 -6.1129,-5.45458 -17.5863,-5.45458 z"
       style="font-weight:600;font-family:'Segoe UI';-inkscape-font-specification:'Segoe UI Semi-Bold'"
       id="path928" />
    <path
       d="m 1655.6488,93.829768 -44.2009,85.862562 v 48.99715 h -22.3826 V 180.16256 L 1545.993,93.829768 h 25.486 l 26.5206,57.837322 q 0.4702,1.03449 2.8213,7.80569 h 0.2821 q 0.8464,-3.00942 3.1035,-7.80569 l 27.7431,-57.837322 z"
       style="font-weight:600;font-family:'Segoe UI';-inkscape-font-specification:'Segoe UI Semi-Bold'"
       id="path930" />
  </g>
  <g
     aria-label="VOICE CONVERSION LIBRARY"
     id="text1774-2"
     style="font-size:65.0843px;line-height:1.25;font-family:Calibri;-inkscape-font-specification:Calibri;letter-spacing:15.7px;word-spacing:0px;fill:#dd1219;stroke-width:4.08056">
    <path
       d="m 455.30947,269.83883 -16.36641,45.57172 h -8.45333 l -16.0804,-45.57172 h 8.26265 l 11.24993,34.57604 q 0.54025,1.65253 0.82626,3.84531 h 0.12712 q 0.22246,-1.81143 0.9216,-3.90887 l 11.50416,-34.51248 z"
       style="font-weight:600;font-family:'Segoe UI';-inkscape-font-specification:'Segoe UI Semi-Bold';fill:#707070"
       id="path951" />
    <path
       d="m 495.57498,316.17326 q -9.85163,0 -15.79438,-6.38767 -5.91098,-6.38767 -5.91098,-16.62065 0,-10.99568 6.0381,-17.54225 6.03809,-6.54656 16.39819,-6.54656 9.59739,0 15.44481,6.35588 5.87919,6.35589 5.87919,16.62065 0,11.15459 -6.00631,17.63759 -6.00632,6.48301 -16.04862,6.48301 z m 0.34957,-40.45523 q -6.26055,0 -10.2012,4.67158 -3.90887,4.67158 -3.90887,12.29864 0,7.59529 3.81354,12.23509 3.81353,4.6398 9.97874,4.6398 6.54657,0 10.32832,-4.41735 3.78175,-4.41734 3.78175,-12.3622 0,-8.16732 -3.68641,-12.61644 -3.65464,-4.44912 -10.10587,-4.44912 z"
       style="font-weight:600;font-family:'Segoe UI';-inkscape-font-specification:'Segoe UI Semi-Bold';fill:#707070"
       id="path953" />
    <path
       d="m 549.44209,315.41055 h -7.78597 v -45.57172 h 7.78597 z"
       style="font-weight:600;font-family:'Segoe UI';-inkscape-font-specification:'Segoe UI Semi-Bold';fill:#707070"
       id="path955" />
    <path
       d="m 608.13968,313.50379 q -5.14827,2.66947 -12.80712,2.66947 -9.91518,0 -15.88972,-6.26055 -5.97453,-6.26055 -5.97453,-16.42997 0,-10.93213 6.70546,-17.66937 6.73724,-6.73724 17.002,-6.73724 6.61012,0 10.96391,1.87498 v 7.49995 q -4.60802,-2.73303 -10.16942,-2.73303 -7.40461,0 -12.01263,4.73514 -4.57624,4.73513 -4.57624,12.64821 0,7.53173 4.29022,12.01263 4.29023,4.44913 11.2817,4.44913 6.45123,0 11.18637,-3.05083 z"
       style="font-weight:600;font-family:'Segoe UI';-inkscape-font-specification:'Segoe UI Semi-Bold';fill:#707070"
       id="path957" />
    <path
       d="m 658.06613,315.41055 h -25.58245 v -45.57172 h 24.56551 v 6.41945 h -17.002 v 12.90245 h 15.66726 v 6.38767 h -15.66726 v 13.47449 h 18.01894 z"
       style="font-weight:600;font-family:'Segoe UI';-inkscape-font-specification:'Segoe UI Semi-Bold';fill:#707070"
       id="path959" />
    <path
       d="m 747.24116,313.50379 q -5.14826,2.66947 -12.80711,2.66947 -9.91519,0 -15.88972,-6.26055 -5.97454,-6.26055 -5.97454,-16.42997 0,-10.93213 6.70547,-17.66937 6.73724,-6.73724 17.002,-6.73724 6.61012,0 10.9639,1.87498 v 7.49995 q -4.60801,-2.73303 -10.16942,-2.73303 -7.40461,0 -12.01263,4.73514 -4.57624,4.73513 -4.57624,12.64821 0,7.53173 4.29023,12.01263 4.29022,4.44913 11.2817,4.44913 6.45123,0 11.18636,-3.05083 z"
       style="font-weight:600;font-family:'Segoe UI';-inkscape-font-specification:'Segoe UI Semi-Bold';fill:#707070"
       id="path961" />
    <path
       d="m 789.54055,316.17326 q -9.85162,0 -15.79438,-6.38767 -5.91098,-6.38767 -5.91098,-16.62065 0,-10.99568 6.0381,-17.54225 6.03809,-6.54656 16.39819,-6.54656 9.59739,0 15.44481,6.35588 5.8792,6.35589 5.8792,16.62065 0,11.15459 -6.00632,17.63759 -6.00631,6.48301 -16.04862,6.48301 z m 0.34958,-40.45523 q -6.26055,0 -10.2012,4.67158 -3.90888,4.67158 -3.90888,12.29864 0,7.59529 3.81354,12.23509 3.81353,4.6398 9.97874,4.6398 6.54657,0 10.32832,-4.41735 3.78175,-4.41734 3.78175,-12.3622 0,-8.16732 -3.68641,-12.61644 -3.65464,-4.44912 -10.10586,-4.44912 z"
       style="font-weight:600;font-family:'Segoe UI';-inkscape-font-specification:'Segoe UI Semi-Bold';fill:#707070"
       id="path963" />
    <path
       d="m 874.29727,315.41055 h -8.26266 l -21.76892,-33.49553 q -0.82626,-1.27118 -1.36651,-2.63769 h -0.19068 q 0.25424,1.46185 0.25424,6.26055 v 29.87267 h -7.30928 v -45.57172 h 8.80291 l 21.03799,32.70105 q 1.33474,2.03388 1.71609,2.79659 h 0.12712 q -0.3178,-1.81143 -0.3178,-6.13343 v -29.36421 h 7.2775 z"
       style="font-weight:600;font-family:'Segoe UI';-inkscape-font-specification:'Segoe UI Semi-Bold';fill:#707070"
       id="path965" />
    <path
       d="m 936.99908,269.83883 -16.36642,45.57172 h -8.45333 l -16.0804,-45.57172 h 8.26266 l 11.24992,34.57604 q 0.54025,1.65253 0.82627,3.84531 h 0.12712 q 0.22245,-1.81143 0.9216,-3.90887 l 11.50416,-34.51248 z"
       style="font-weight:600;font-family:'Segoe UI';-inkscape-font-specification:'Segoe UI Semi-Bold';fill:#707070"
       id="path967" />
    <path
       d="m 984.31959,315.41055 h -25.58245 v -45.57172 h 24.56551 v 6.41945 h -17.002 v 12.90245 h 15.66727 v 6.38767 h -15.66727 v 13.47449 h 18.01894 z"
       style="font-weight:600;font-family:'Segoe UI';-inkscape-font-specification:'Segoe UI Semi-Bold';fill:#707070"
       id="path969" />
    <path
       d="m 1043.335,315.41055 h -8.8347 l -7.2775,-12.2033 q -0.9851,-1.68431 -1.9385,-2.86015 -0.9216,-1.20762 -1.9068,-1.97033 -0.9534,-0.7627 -2.0974,-1.11228 -1.1441,-0.34957 -2.5742,-0.34957 h -3.0508 v 18.49563 h -7.5317 v -45.57172 h 14.9999 q 3.2097,0 5.9109,0.76271 2.7013,0.76271 4.7034,2.3199 2.0021,1.52541 3.1144,3.84531 1.144,2.28812 1.144,5.37073 0,2.41523 -0.7309,4.44912 -0.6991,2.0021 -2.0339,3.59108 -1.3029,1.55719 -3.1779,2.66947 -1.8432,1.11228 -4.1631,1.71609 v 0.12712 q 1.2394,0.69914 2.161,1.55719 0.9216,0.82626 1.7479,1.71609 0.8262,0.88982 1.6207,2.03388 0.8263,1.11228 1.8114,2.60592 z m -27.6799,-39.43828 v 14.80922 h 6.2923 q 1.7479,0 3.2098,-0.54026 1.4936,-0.54025 2.5741,-1.55719 1.0805,-1.01694 1.6843,-2.47879 0.6038,-1.46186 0.6038,-3.27329 0,-3.27328 -2.0657,-5.11649 -2.0656,-1.8432 -5.9427,-1.8432 z"
       style="font-weight:600;font-family:'Segoe UI';-inkscape-font-specification:'Segoe UI Semi-Bold';fill:#707070"
       id="path971" />
    <path
       d="m 1062.2447,313.59912 v -7.78596 q 1.0488,0.95338 2.4788,1.71609 1.4619,0.76271 3.0826,1.30296 1.6208,0.50847 3.2415,0.79448 1.6208,0.28602 2.9873,0.28602 4.7669,0 7.0868,-1.58897 2.3517,-1.58897 2.3517,-4.60802 0,-1.62075 -0.7945,-2.79659 -0.7627,-1.20762 -2.161,-2.19278 -1.3983,-0.98517 -3.305,-1.87499 -1.875,-0.9216 -4.036,-1.90677 -2.3199,-1.2394 -4.322,-2.51057 -2.0021,-1.27118 -3.4958,-2.79659 -1.4618,-1.5572 -2.3199,-3.49574 -0.8262,-1.93855 -0.8262,-4.54446 0,-3.20973 1.43,-5.56141 1.4619,-2.38345 3.8136,-3.90887 2.3834,-1.55719 5.4025,-2.28812 3.019,-0.7627 6.1652,-0.7627 7.1504,0 10.4236,1.62075 v 7.46817 q -3.877,-2.79659 -9.9787,-2.79659 -1.6843,0 -3.3686,0.31779 -1.6526,0.31779 -2.9873,1.04872 -1.3029,0.73093 -2.1292,1.87499 -0.8263,1.14406 -0.8263,2.76481 0,1.52541 0.6356,2.63769 0.6356,1.11228 1.8432,2.03389 1.2394,0.9216 2.9873,1.81143 1.7796,0.85804 4.0995,1.87498 2.3835,1.2394 4.4809,2.60592 2.1293,1.36651 3.7182,3.01905 1.6208,1.65253 2.5424,3.68641 0.9534,2.00211 0.9534,4.57624 0,3.46396 -1.3983,5.84742 -1.3983,2.38346 -3.7818,3.87709 -2.3517,1.49363 -5.4343,2.161 -3.0826,0.66737 -6.5147,0.66737 -1.1441,0 -2.8284,-0.19068 -1.6526,-0.15889 -3.4004,-0.50847 -1.7479,-0.31779 -3.3051,-0.79448 -1.5572,-0.4767 -2.5106,-1.08051 z"
       style="font-weight:600;font-family:'Segoe UI';-inkscape-font-specification:'Segoe UI Semi-Bold';fill:#707070"
       id="path973" />
    <path
       d="m 1123.2304,315.41055 h -7.786 v -45.57172 h 7.786 z"
       style="font-weight:600;font-family:'Segoe UI';-inkscape-font-specification:'Segoe UI Semi-Bold';fill:#707070"
       id="path975" />
    <path
       d="m 1168.9302,316.17326 q -9.8516,0 -15.7944,-6.38767 -5.9109,-6.38767 -5.9109,-16.62065 0,-10.99568 6.0381,-17.54225 6.0381,-6.54656 16.3982,-6.54656 9.5974,0 15.4448,6.35588 5.8792,6.35589 5.8792,16.62065 0,11.15459 -6.0063,17.63759 -6.0064,6.48301 -16.0487,6.48301 z m 0.3496,-40.45523 q -6.2605,0 -10.2012,4.67158 -3.9089,4.67158 -3.9089,12.29864 0,7.59529 3.8136,12.23509 3.8135,4.6398 9.9787,4.6398 6.5466,0 10.3283,-4.41735 3.7818,-4.41734 3.7818,-12.3622 0,-8.16732 -3.6864,-12.61644 -3.6547,-4.44912 -10.1059,-4.44912 z"
       style="font-weight:600;font-family:'Segoe UI';-inkscape-font-specification:'Segoe UI Semi-Bold';fill:#707070"
       id="path977" />
    <path
       d="m 1253.6869,315.41055 h -8.2626 l -21.769,-33.49553 q -0.8262,-1.27118 -1.3665,-2.63769 h -0.1907 q 0.2543,1.46185 0.2543,6.26055 v 29.87267 h -7.3093 v -45.57172 h 8.8029 l 21.038,32.70105 q 1.3347,2.03388 1.7161,2.79659 h 0.1271 q -0.3178,-1.81143 -0.3178,-6.13343 v -29.36421 h 7.2775 z"
       style="font-weight:600;font-family:'Segoe UI';-inkscape-font-specification:'Segoe UI Semi-Bold';fill:#707070"
       id="path979" />
    <path
       d="m 1339.4933,315.41055 h -25.2328 v -45.57172 h 7.5635 v 39.18406 h 17.6693 z"
       style="font-weight:600;font-family:'Segoe UI';-inkscape-font-specification:'Segoe UI Semi-Bold';fill:#707070"
       id="path981" />
    <path
       d="m 1369.5259,315.41055 h -7.786 v -45.57172 h 7.786 z"
       style="font-weight:600;font-family:'Segoe UI';-inkscape-font-specification:'Segoe UI Semi-Bold';fill:#707070"
       id="path983" />
    <path
       d="m 1396.444,315.41055 v -45.57172 h 14.4596 q 6.6102,0 10.4555,2.89193 3.8771,2.89193 3.8771,7.53173 0,3.87709 -2.1928,6.73724 -2.1928,2.86015 -6.0699,4.06777 v 0.12712 q 4.7034,0.54025 7.5,3.49574 2.8283,2.92371 2.8283,7.62706 0,5.84742 -4.608,9.47028 -4.608,3.62285 -11.6313,3.62285 z m 7.5317,-39.50184 v 12.96601 h 4.8941 q 3.9406,0 6.1652,-1.84321 2.2563,-1.87499 2.2563,-5.27539 0,-5.84741 -7.8177,-5.84741 z m 0,19.03588 v 14.42787 h 6.4512 q 4.2267,0 6.5148,-1.93855 2.3199,-1.97032 2.3199,-5.4025 0,-7.08682 -9.8198,-7.08682 z"
       style="font-weight:600;font-family:'Segoe UI';-inkscape-font-specification:'Segoe UI Semi-Bold';fill:#707070"
       id="path985" />
    <path
       d="m 1486.6668,315.41055 h -8.8346 l -7.2775,-12.2033 q -0.9852,-1.68431 -1.9386,-2.86015 -0.9216,-1.20762 -1.9067,-1.97033 -0.9534,-0.7627 -2.0975,-1.11228 -1.144,-0.34957 -2.5741,-0.34957 h -3.0508 v 18.49563 h -7.5318 v -45.57172 h 14.9999 q 3.2097,0 5.911,0.76271 2.7012,0.76271 4.7034,2.3199 2.0021,1.52541 3.1143,3.84531 1.1441,2.28812 1.1441,5.37073 0,2.41523 -0.7309,4.44912 -0.6992,2.0021 -2.0339,3.59108 -1.303,1.55719 -3.178,2.66947 -1.8432,1.11228 -4.1631,1.71609 v 0.12712 q 1.2394,0.69914 2.161,1.55719 0.9216,0.82626 1.7479,1.71609 0.8263,0.88982 1.6208,2.03388 0.8262,1.11228 1.8114,2.60592 z m -27.6798,-39.43828 v 14.80922 h 6.2923 q 1.7478,0 3.2097,-0.54026 1.4936,-0.54025 2.5741,-1.55719 1.0805,-1.01694 1.6843,-2.47879 0.6039,-1.46186 0.6039,-3.27329 0,-3.27328 -2.0657,-5.11649 -2.0657,-1.8432 -5.9428,-1.8432 z"
       style="font-weight:600;font-family:'Segoe UI';-inkscape-font-specification:'Segoe UI Semi-Bold';fill:#707070"
       id="path987" />
    <path
       d="m 1545.1102,315.41055 h -8.2945 l -4.0995,-11.59949 h -17.9236 l -3.9407,11.59949 h -8.2626 l 17.0655,-45.57172 h 8.5169 z M 1530.7141,297.64584 1524.39,279.468 q -0.2861,-0.88982 -0.6039,-2.86015 h -0.1271 q -0.286,1.81143 -0.6356,2.86015 l -6.2605,18.17784 z"
       style="font-weight:600;font-family:'Segoe UI';-inkscape-font-specification:'Segoe UI Semi-Bold';fill:#707070"
       id="path989" />
    <path
       d="m 1602.2823,315.41055 h -8.8347 l -7.2775,-12.2033 q -0.9851,-1.68431 -1.9385,-2.86015 -0.9216,-1.20762 -1.9068,-1.97033 -0.9534,-0.7627 -2.0974,-1.11228 -1.1441,-0.34957 -2.5741,-0.34957 h -3.0509 v 18.49563 h -7.5317 v -45.57172 h 14.9999 q 3.2097,0 5.911,0.76271 2.7012,0.76271 4.7033,2.3199 2.0021,1.52541 3.1144,3.84531 1.1441,2.28812 1.1441,5.37073 0,2.41523 -0.731,4.44912 -0.6991,2.0021 -2.0338,3.59108 -1.303,1.55719 -3.178,2.66947 -1.8432,1.11228 -4.1631,1.71609 v 0.12712 q 1.2394,0.69914 2.161,1.55719 0.9216,0.82626 1.7479,1.71609 0.8263,0.88982 1.6207,2.03388 0.8263,1.11228 1.8115,2.60592 z m -27.6799,-39.43828 v 14.80922 h 6.2924 q 1.7478,0 3.2097,-0.54026 1.4936,-0.54025 2.5741,-1.55719 1.0805,-1.01694 1.6843,-2.47879 0.6038,-1.46186 0.6038,-3.27329 0,-3.27328 -2.0656,-5.11649 -2.0657,-1.8432 -5.9428,-1.8432 z"
       style="font-weight:600;font-family:'Segoe UI';-inkscape-font-specification:'Segoe UI Semi-Bold';fill:#707070"
       id="path991" />
    <path
       d="m 1654.0837,269.83883 -14.9363,29.01463 v 16.55709 h -7.5635 v -16.39819 l -14.555,-29.17353 h 8.6122 l 8.9618,19.54436 q 0.1589,0.34957 0.9534,2.63769 h 0.095 q 0.286,-1.01694 1.0487,-2.63769 l 9.3749,-19.54436 z"
       style="font-weight:600;font-family:'Segoe UI';-inkscape-font-specification:'Segoe UI Semi-Bold';fill:#707070"
       id="path993" />
  </g>
</svg>
